PathFileType	4	(X/Y/Z)	Kaydara	
DataRate	CameraRate	NumFrames	NumMarkers	Units	OrigDataRate	OrigDataStartFrame	OrigNumFrames	
30.00	30.00	11	28	mm	30.00	79	126	
Frame#	Time	reference			Hips			Spine			Spine1			Neck			Head			Head_End			LeftShoulder			LeftArm			LeftForeArm			LeftHand			LeftHand_End			RightShoulder			RightArm			RightForeArm			RightHand			RightHand_End			LeftUpLeg			LeftLeg			LeftFoot			LeftFoot_End			RightUpLeg			RightLeg			RightFoot			RightFoot_End			Tail			Tail1			Tail1_End			
		X1	Y1	Z1	X2	Y2	Z2	X3	Y3	Z3	X4	Y4	Z4	X5	Y5	Z5	X6	Y6	Z6	X7	Y7	Z7	X8	Y8	Z8	X9	Y9	Z9	X10	Y10	Z10	X11	Y11	Z11	X12	Y12	Z12	X13	Y13	Z13	X14	Y14	Z14	X15	Y15	Z15	X16	Y16	Z16	X17	Y17	Z17	X18	Y18	Z18	X19	Y19	Z19	X20	Y20	Z20	X21	Y21	Z21	X22	Y22	Z22	X23	Y23	Z23	X24	Y24	Z24	X25	Y25	Z25	X26	Y26	Z26	X27	Y27	Z27	X28	Y28	Z28	

79	2.600	0.00000	0.00000	0.00000	161.96270	-103.50729	470.40104	161.96276	-103.50734	470.40107	170.32708	-292.14435	449.27955	164.82409	-517.10172	444.29309	148.59583	-654.02393	468.56233	127.70317	-814.40038	416.18972	208.03617	-491.27781	412.59361	248.11276	-544.04939	367.77155	244.65696	-484.06999	228.14883	184.60889	-602.06868	109.17608	169.31685	-652.86948	60.49931	122.06905	-489.20100	413.75643	77.85981	-523.39665	356.49759	66.57019	-416.53138	248.99698	116.59347	-457.35888	83.12121	140.94141	-488.56872	22.97873	213.80406	-60.68993	385.37021	251.70606	-178.73660	284.23473	218.85483	-141.85747	111.14300	214.61764	-185.19994	12.31245	118.52137	-51.01486	386.08920	115.19875	-128.26939	246.01538	139.78231	4.64433	127.14751	154.17854	16.59113	20.78011	168.55630	-37.28749	453.13487	174.17374	9.31822	342.69786	173.74888	53.53721	231.14295 
80	2.633	0.00000	0.00000	0.00000	163.28697	-108.65296	470.97446	163.28703	-108.65302	470.97449	172.56977	-297.18046	449.26656	165.82288	-522.10236	444.20871	149.61244	-658.92783	469.02921	129.13267	-819.29079	416.45259	208.75934	-496.48298	411.97329	248.06719	-549.45322	366.70699	241.46067	-493.14197	225.67731	184.80057	-608.26203	102.30396	170.56038	-657.52341	51.76162	122.82632	-493.95666	414.24129	77.93798	-527.45380	357.09802	66.38611	-420.23979	249.97318	116.63919	-458.31956	83.51435	141.01699	-488.84406	23.03317	214.64311	-64.13760	386.52315	253.23411	-180.74586	283.98920	219.62998	-142.76814	111.27998	215.24766	-185.38083	12.13889	119.30112	-55.10294	387.61543	116.36548	-130.46129	246.50384	139.88352	2.84181	127.85662	153.87968	16.12903	21.59488	169.40550	-42.12291	454.75801	175.81764	4.38318	344.32228	176.54355	47.57582	232.36753 
81	2.667	0.00000	0.00000	0.00000	164.35825	-113.93860	471.36337	164.35831	-113.93865	471.36340	174.83935	-302.36070	449.28901	166.85407	-527.23144	443.77959	150.58159	-663.99615	468.89264	130.19911	-824.67395	417.24772	209.44945	-501.75215	410.98548	248.07904	-555.01573	365.48014	239.21049	-500.35771	223.92512	186.20345	-611.19934	95.12929	173.08654	-659.44889	43.32270	123.57274	-498.78935	414.51007	77.99275	-531.57598	357.50239	66.17925	-423.75378	251.01842	116.40753	-459.26279	83.98485	140.47243	-489.01704	22.99665	215.24744	-67.55482	387.63804	254.50491	-182.70161	283.71485	219.71629	-143.73909	111.46012	215.05610	-185.65900	12.03676	119.83423	-59.34216	388.97448	117.70389	-132.77764	246.83838	140.12652	1.11987	128.64928	153.75030	15.95602	22.54423	169.90071	-47.09177	456.28221	177.21817	-0.48456	345.94544	179.45689	41.78871	233.66028 
82	2.700	0.00000	0.00000	0.00000	165.36606	-119.29101	471.55258	165.36611	-119.29106	471.55261	177.59926	-307.61891	449.57601	167.94027	-532.40614	443.38134	151.59653	-669.12747	468.68360	131.31624	-829.98941	417.57444	210.32779	-507.11429	410.17539	248.16437	-560.66267	364.33923	237.77850	-506.03007	222.87762	187.56559	-611.21175	88.34340	175.16418	-658.85543	35.80503	124.52195	-503.55297	414.72346	78.21981	-535.57623	357.86401	66.90769	-427.05008	252.04278	116.50390	-460.01632	84.30063	140.43230	-489.22374	22.99521	215.74781	-71.09718	388.54578	255.33869	-184.78685	283.15516	219.29967	-144.52329	111.45759	214.27569	-186.02318	11.87587	120.28187	-63.58840	390.21547	119.61393	-135.01274	247.04391	140.45595	-0.40369	129.37491	153.59567	15.32619	23.33756	170.40294	-52.15427	457.62612	178.50394	-5.24012	347.47432	182.38978	36.33944	234.97527 
83	2.733	0.00000	0.00000	0.00000	166.41058	-124.71745	471.70410	166.41064	-124.71751	471.70412	180.20502	-312.96042	449.92524	169.12037	-537.65933	442.96118	152.44048	-674.31131	468.41826	132.71642	-835.55979	418.31945	211.29820	-512.49130	409.39610	248.25072	-566.47260	363.34698	239.49269	-510.26386	222.39363	187.14468	-609.26062	84.03430	174.04691	-657.28236	32.01164	125.56971	-508.43282	414.88838	78.67521	-539.59203	358.03433	67.63320	-430.26369	253.01334	116.64803	-460.73823	84.63034	140.83791	-489.31230	23.12939	216.28135	-75.00761	389.28486	255.89724	-187.59768	282.72961	218.73954	-145.44856	111.72441	213.41325	-186.46117	11.95670	120.77521	-68.11996	391.29747	121.71707	-137.52247	247.13651	140.78518	-2.27891	129.89503	153.50775	15.23676	24.08700	170.99536	-57.35509	458.74457	179.82512	-9.71354	348.96160	185.47783	31.59786	236.43865 
84	2.767	0.00000	0.00000	0.00000	167.52323	-130.13799	471.71776	167.52329	-130.13804	471.71778	182.30195	-318.38410	450.62252	170.11615	-542.99237	442.64769	153.40797	-679.59252	468.36308	133.58848	-840.90944	418.52294	212.12797	-517.85279	408.85387	248.36770	-572.13215	362.58915	242.51129	-513.24020	222.58410	186.24735	-606.63880	81.88924	171.57051	-655.17867	30.77694	126.46823	-513.42707	415.08535	79.11368	-543.70779	358.13801	68.56210	-433.46881	254.02243	116.91723	-461.36084	85.00231	141.12858	-489.58449	23.34818	216.93261	-79.13667	389.81127	256.44028	-190.87726	282.32570	218.31513	-146.52854	112.09149	212.76689	-186.94727	12.09378	121.39926	-72.74932	392.15514	123.67051	-140.46477	247.20881	140.90342	-4.52917	130.48469	153.11112	14.95625	24.96080	171.74191	-62.59427	459.60548	181.25319	-14.04682	350.27725	188.63529	27.33012	237.87863 
85	2.800	0.00000	0.00000	0.00000	168.64281	-135.35791	471.53214	168.64286	-135.35797	471.53216	184.20787	-323.66537	451.58095	170.99578	-548.17254	442.47386	154.49637	-684.77700	468.30089	133.87312	-845.98770	418.44316	212.95937	-523.03784	408.61654	248.82286	-577.41547	362.17439	243.79525	-515.57781	223.41272	185.68544	-605.21496	81.03152	170.10197	-653.91915	30.34569	127.35003	-518.27023	415.27403	79.57570	-547.66413	358.21278	69.59548	-436.49977	255.02895	117.22732	-461.91747	85.41429	141.13954	-490.01039	23.58397	217.68133	-83.28590	390.07771	256.97810	-194.37894	281.84618	218.15308	-147.73756	112.38462	212.50945	-187.43865	12.10514	122.12920	-77.29534	392.68855	125.41216	-143.55774	247.09152	140.90304	-6.79416	131.09265	152.59862	14.39297	25.83906	172.57493	-67.67179	460.13980	182.78203	-18.14712	351.31377	191.81105	23.61352	239.17759 
86	2.833	0.00000	0.00000	0.00000	169.65729	-140.14862	471.19240	169.65735	-140.14867	471.19242	186.65846	-328.45469	452.43595	172.10562	-552.83975	442.40973	155.37122	-689.50925	467.73666	134.30774	-851.11607	419.36758	214.19685	-527.81515	408.62939	249.96976	-582.26075	362.19701	240.95345	-518.22066	224.64140	185.54704	-606.34076	80.24973	171.05397	-654.92851	29.13049	128.62155	-522.56624	415.36198	80.37108	-551.00648	358.21813	70.34146	-439.04761	255.90176	117.37005	-462.55288	85.84354	141.21296	-490.24163	23.80448	218.43125	-87.30081	390.07949	257.31957	-197.98886	281.28695	218.18593	-149.03148	112.55120	212.58408	-187.87233	11.93307	122.86033	-81.67867	392.81893	127.05080	-146.22053	246.47424	140.99802	-8.51669	131.39554	152.39970	14.23078	26.43576	173.33218	-72.36671	460.29438	184.36959	-21.73695	352.05952	195.05784	20.79994	240.36184 
87	2.867	0.00000	0.00000	0.00000	170.67991	-144.76110	471.00258	170.67997	-144.76115	471.00260	188.82580	-333.13837	454.12807	172.86857	-557.37014	442.88309	155.85370	-694.09295	467.73085	134.53925	-855.61459	419.18752	215.17667	-532.43420	409.30872	250.40720	-586.75465	362.31842	240.60645	-522.13305	225.08881	185.61623	-607.27846	78.76618	171.90190	-655.83295	27.40107	129.62470	-526.67801	415.92215	81.13353	-554.29960	358.58082	71.06049	-441.72459	256.94705	117.38664	-463.44648	86.45942	141.30887	-490.64417	24.23396	219.23979	-91.29718	390.16544	257.76923	-201.58348	280.83851	218.11238	-150.26951	112.92713	212.11799	-188.17470	11.97534	123.64494	-86.10206	392.91340	128.44019	-149.14322	245.93450	141.22794	-10.53201	131.81445	152.12328	13.76231	27.14794	174.06368	-76.91018	460.44500	185.93932	-25.20205	352.81034	198.11094	18.38396	241.67030 
88	2.900	0.00000	0.00000	0.00000	171.63694	-149.18612	470.86109	171.63700	-149.18617	470.86111	190.39925	-337.64165	455.61281	173.66371	-561.76979	443.46940	156.58988	-698.56219	467.89008	134.72847	-859.95259	419.15390	216.02561	-536.84203	409.95686	251.01603	-591.13719	362.75839	240.38311	-525.34059	226.15047	185.16175	-606.82724	77.84503	171.03621	-655.42696	26.63437	130.50006	-530.82023	416.67471	81.87029	-557.82110	359.15539	72.20036	-444.52979	258.28124	117.44492	-464.66960	87.30960	141.10255	-491.31523	24.74506	220.04699	-95.22129	390.26730	258.38698	-204.91642	280.28099	218.09058	-151.49653	113.18061	212.01366	-188.75222	11.99225	124.42603	-90.47530	392.91714	129.77035	-151.91531	245.28062	141.10825	-12.40472	132.10719	151.66305	13.46099	27.78288	174.72103	-81.28439	460.54107	187.30534	-28.47415	353.52381	200.78656	16.35349	243.03065 
89	2.933	0.00000	0.00000	0.00000	172.37940	-153.30489	470.72292	172.37946	-153.30494	470.72294	192.08131	-341.79925	457.24214	174.47136	-565.82140	444.39945	157.65143	-702.72337	468.37831	134.29217	-863.85359	419.47639	216.87774	-540.94703	410.90350	251.64016	-595.20468	363.49388	239.68870	-528.32422	227.52278	184.64958	-606.24950	77.24862	170.33943	-654.95831	26.19309	131.38602	-534.62073	417.77046	82.53636	-561.12192	360.20508	72.72422	-447.48377	259.73561	117.08089	-466.22959	88.37323	140.55912	-492.19159	25.45469	220.69815	-98.95042	390.33645	259.10270	-208.03404	279.76603	218.06855	-152.56245	113.51585	211.99991	-189.15863	12.08661	125.04544	-94.74412	392.74073	131.02499	-154.72887	244.53124	140.91413	-14.27761	132.39015	151.12437	13.16231	28.43437	175.10993	-85.37175	460.51065	188.43904	-31.43384	354.14797	203.05948	14.80828	244.38501 
